{"title":"Need for Speed 2014 NEW HDRip x264 AC3-MiLLENiUM","uid":10532149,"size":1640822125,"categoryP":"video","categoryS":"movies","magnet":"?xt=urn:btih:ad13a3510533d5f193d7af09feada4b6a18cc482&amp;dn=Need+for+Speed+2014+NEW+HDRip+x264+AC3-MiLLENiUM&amp;tr=udp%3A%2F%2Ftracker.openbittorrent.com%3A80&amp;tr=udp%3A%2F%2Fopen.demonii.com%3A1337&amp;tr=udp%3A%2F%2Ftracker.coppersurfer.tk%3A6969&amp;tr=udp%3A%2F%2Fexodus.desync.com%3A6969","seeders":1,"leechers":0,"uploader":"HeroMaster","files":-1,"time":1405117507,"description":":::::::::: MiLLENiUM PRESENTS ::::::::::\n\n\n:::: Need for Speed 2014 NEW HDRip x264 AC3 ::::\n\n\n::Information::\n\n\nSource...............: 1080p WEBDL-A Friend [THANKS]\nIMDb Information.... : http://www.imdb.com/title/tt2369135/\nSample Included......: yes\n\n\nNOTES\nV2 is because the quality wasnt too good on that last one, \nhdts lol we changed some settings and they didnt work too \ngood :( our mistake, heres a much nicer rip for you all :) \n\n\nGeneral\nFormat                                   : Matroska\nFormat version                           : Version 2\nFile size                                : 1.49 GiB\nDuration                                 : 2h 5mn\nOverall bit rate mode                    : Variable\nOverall bit rate                         : 1 700 Kbps\nEncoded date                             : UTC 2014-07-11 18:16:35\nWriting application                      : mkvmerge v7.0.0 ('Where We Going') Writing library                          : libebml v1.3.0 + libmatroska v1.4.1\n\n\nVideo\nID                                       : 1\nFormat                                   : AVC\nFormat/Info                              : Advanced Video Codec\nFormat profile                           : &lt;a class=&quot;__cf_email__&quot; href=&quot;/cdn-cgi/l/email-protection&quot; data-cfemail=&quot;b7ffded0dff7fb839986&quot;&gt;[email&amp;#160;protected]&lt;/a&gt;&lt;script cf-hash='f9e31' type=&quot;text/javascript&quot;&gt;\n/* &lt;![CDATA[ */!function(){try{var t=&quot;currentScript&quot;in document?document.currentScript:function(){for(var t=document.getElementsByTagName(&quot;script&quot;),e=t.length;e--;)if(t[e].getAttribute(&quot;cf-hash&quot;))return t[e]}();if(t&amp;&amp;t.previousSibling){var e,r,n,i,c=t.previousSibling,a=c.getAttribute(&quot;data-cfemail&quot;);if(a){for(e=&quot;&quot;,r=parseInt(a.substr(0,2),16),n=2;a.length-n;n+=2)i=parseInt(a.substr(n,2),16)^r,e+=String.fromCharCode(i);e=document.createTextNode(e),c.parentNode.replaceChild(e,c)}}}catch(u){}}();/* ]]&gt; */&lt;/script&gt;\nFormat settings, CABAC                   : Yes\nFormat settings, ReFrames                : 3 frames\nCodec ID                                 : V_MPEG4/ISO/AVC\nDuration                                 : 2h 5mn\nBit rate mode                            : Variable\nBit rate                                 : 1 218 Kbps\nMaximum bit rate                         : 40.0 Mbps\nWidth                                    : 720 pixels\nHeight                                   : 304 pixels\nDisplay aspect ratio                     : 2.35:1\nFrame rate mode                          : Constant\nFrame rate                               : 30.000 fps\nColor space                              : YUV\nChroma subsampling                       : 4:2:0\nBit depth                                : 8 bits\nScan type                                : Progressive\nBits/(Pixel*Frame)                       : 0.186\nStream size                              : 1.07 GiB (72%)\nWriting library                          : x264 core 142 r2431 ac76440\n\n\nAudio\nID                                       : 2\nFormat                                   : AC-3\nFormat/Info                              : Audio Coding 3\nMode extension                           : CM (complete main)\nFormat settings, Endianness              : Big\nCodec ID                                 : A_AC3\nDuration                                 : 2h 5mn\nBit rate mode                            : Constant\nBit rate                                 : 448 Kbps\nChannel(s)                               : 6 channels\nChannel positions                        : Front: L C R, Side: L R, LFE\nSampling rate                            : 48.0 KHz\nBit depth                                : 16 bits\nCompression mode                         : Lossy\nStream size                              : 402 MiB (26%)\nLanguage                                 : English\nDefault                                  : Yes\nForced                                   : No\n\n\nPlot\nFresh from prison, a street racer who was framed by a wealthy \nbusiness associate joins a cross country race with revenge in \nmind. His ex-partner, learning of the plan, places a massive \nbounty on his head as the race begins.  \n\n\n::Greetz and Respect::\n\n\nALL CREDIT Goes to MiLLENiUM for Encoding and ABG for Distribution.\n\n\n::Poster::\n\n &lt;a href=&quot;\nhttp://i.imgur.com/JpU82eE.png&quot; rel=&quot;nofollow&quot; target=&quot;_NEW&quot;&gt;\nhttp://i.imgur.com/JpU82eE.png&lt;/a&gt;\n\n\n::Screenshots::\n\n &lt;a href=&quot;\nhttp://i.imgur.com/uxPlBu5.jpg&quot; rel=&quot;nofollow&quot; target=&quot;_NEW&quot;&gt;\nhttp://i.imgur.com/uxPlBu5.jpg&lt;/a&gt;\n\n &lt;a href=&quot;\nhttp://i.imgur.com/3OAuBzR.jpg&quot; rel=&quot;nofollow&quot; target=&quot;_NEW&quot;&gt;\nhttp://i.imgur.com/3OAuBzR.jpg&lt;/a&gt;\n\n &lt;a href=&quot;\nhttp://i.imgur.com/omfKGHx.jpg&quot; rel=&quot;nofollow&quot; target=&quot;_NEW&quot;&gt;\nhttp://i.imgur.com/omfKGHx.jpg&lt;/a&gt;\n\n\nSEED AND ENJOY!","torrent":{"xt":"urn:btih:ad13a3510533d5f193d7af09feada4b6a18cc482","amp;dn":"Need+for+Speed+2014+NEW+HDRip+x264+AC3-MiLLENiUM","amp;tr":["udp%3A%2F%2Ftracker.openbittorrent.com%3A80","udp%3A%2F%2Fopen.demonii.com%3A1337","udp%3A%2F%2Ftracker.coppersurfer.tk%3A6969","udp%3A%2F%2Fexodus.desync.com%3A6969"],"infoHash":"ad13a3510533d5f193d7af09feada4b6a18cc482","infoHashBuffer":{"type":"Buffer","data":[173,19,163,81,5,51,213,241,147,215,175,9,254,173,164,182,161,140,196,130]},"announce":[],"urlList":[]}}